<svg width="1280" height="1274" viewBox="0 0 1280 1274" fill="none" xmlns="http://www.w3.org/2000/svg">
<path d="M182.987 -245.558L158.134 -220.705V-150.41V-80.1151V-44.9677L232.693 29.5912" stroke="#E2B649" stroke-width="1.75737" stroke-linecap="round" stroke-linejoin="round"/>
<circle cx="232.694" cy="29.5915" r="3.95408" fill="#E2B649"/>
<path d="M745.346 633.128V703.423V773.718V879.16L670.787 953.719L621.081 1003.42" stroke="#E2B649" stroke-width="1.75737" stroke-linecap="round" stroke-linejoin="round"/>
<circle cx="621.082" cy="1003.43" r="3.95408" fill="#E2B649"/>
<path d="M182.988 879.16V984.602V1090.04V1195.49V1230.63H147.841" stroke="#E2B649" stroke-width="1.75737" stroke-linecap="round" stroke-linejoin="round"/>
<circle cx="147.841" cy="1230.63" r="3.95408" fill="#E2B649"/>
<path d="M77.5447 773.718V808.865L102.398 833.718V904.013H32.1029V974.308" stroke="#E2B649" stroke-width="1.75737" stroke-linecap="round" stroke-linejoin="round"/>
<circle cx="32.1029" cy="974.308" r="3.95408" fill="#E2B649"/>
<path d="M358.724 211.359V316.801V422.243L284.166 496.802L333.872 546.508V616.803" stroke="#E2B649" stroke-width="1.75737" stroke-linecap="round" stroke-linejoin="round"/>
<circle cx="333.871" cy="616.803" r="3.95408" fill="#E2B649"/>
<path d="M429.02 281.654H499.315V387.096V492.538H464.167L489.02 517.391" stroke="#E2B649" stroke-width="1.75737" stroke-linecap="round" stroke-linejoin="round"/>
<circle cx="489.02" cy="517.391" r="3.95408" fill="#E2B649"/>
<path d="M358.725 457.391H464.167V562.833H429.02V633.128H393.873" stroke="#E2B649" stroke-width="1.75737" stroke-linecap="round" stroke-linejoin="round"/>
<circle cx="393.873" cy="633.128" r="3.95408" fill="#E2B649"/>
<path d="M1096.82 949.455V984.602H1026.53L1001.67 1009.46H896.23V1044.6" stroke="#E2B649" stroke-width="1.75737" stroke-linecap="round" stroke-linejoin="round"/>
<circle cx="896.23" cy="1044.6" r="3.95408" fill="#E2B649"/>
<path d="M7.25077 808.865V914.307V984.602V1090.04H-27.8966L-3.04366 1114.9" stroke="#E2B649" stroke-width="1.75737" stroke-linecap="round" stroke-linejoin="round"/>
<circle cx="-3.04456" cy="1114.9" r="3.95408" fill="#E2B649"/>
<path d="M850.789 808.865L801.083 858.571L726.524 933.13V1038.57L751.377 1063.43V1133.72" stroke="#E2B649" stroke-width="1.75737" stroke-linecap="round" stroke-linejoin="round"/>
<circle cx="751.378" cy="1133.72" r="3.95408" fill="#E2B649"/>
<path d="M7.25075 562.833V633.128V668.275V773.718V879.16H-63.044" stroke="#E2B649" stroke-width="1.75737" stroke-linecap="round" stroke-linejoin="round"/>
<path d="M534.462 211.359V281.654H464.167L538.726 356.213V426.507L613.285 501.066" stroke="#E2B649" stroke-width="1.75737" stroke-linecap="round" stroke-linejoin="round"/>
<circle cx="613.285" cy="501.067" r="3.95408" fill="#E2B649"/>
<path d="M464.167 703.423V738.57V844.013V914.307V949.455V1019.75" stroke="#E2B649" stroke-width="1.75737" stroke-linecap="round" stroke-linejoin="round"/>
<circle cx="464.167" cy="1019.75" r="3.95408" fill="#E2B649"/>
<path d="M1131.97 -315.853L1206.53 -241.294V-135.851V-100.704V4.73813V39.8855" stroke="#E2B649" stroke-width="1.75737" stroke-linecap="round" stroke-linejoin="round"/>
<circle cx="1206.53" cy="39.8857" r="3.95408" fill="#E2B649"/>
<path d="M1061.67 738.57V808.865H1131.97V844.013V879.16V914.307" stroke="#E2B649" stroke-width="1.75737" stroke-linecap="round" stroke-linejoin="round"/>
<circle cx="1131.97" cy="914.307" r="3.95408" fill="#E2B649"/>
<path d="M850.789 176.212V246.506L825.936 271.359V306.507H931.378H966.525" stroke="#E2B649" stroke-width="1.75737" stroke-linecap="round" stroke-linejoin="round"/>
<circle cx="966.525" cy="306.507" r="3.95408" fill="#E2B649"/>
<path d="M429.02 -210.41V-175.263V-69.8208V-34.6734V0.473985H323.578" stroke="#E2B649" stroke-width="1.75737" stroke-linecap="round" stroke-linejoin="round"/>
<circle cx="323.578" cy="0.474224" r="3.95408" fill="#E2B649"/>
<path d="M182.988 844.012V914.307L207.841 939.16V974.308H137.546L62.9873 1048.87" stroke="#E2B649" stroke-width="1.75737" stroke-linecap="round" stroke-linejoin="round"/>
<circle cx="62.9873" cy="1048.87" r="3.95408" fill="#E2B649"/>
<path d="M569.61 492.538L644.169 567.097V602.245V707.687L718.728 782.246H789.022" stroke="#E2B649" stroke-width="1.75737" stroke-linecap="round" stroke-linejoin="round"/>
<circle cx="789.022" cy="782.246" r="3.95408" fill="#E2B649"/>
<path d="M393.873 176.212V211.359V281.654H358.725V387.096V492.538" stroke="#E2B649" stroke-width="1.75737" stroke-linecap="round" stroke-linejoin="round"/>
<circle cx="358.725" cy="492.538" r="3.95408" fill="#E2B649"/>
<path d="M1167.12 597.981V668.276H1272.56L1198 742.835V848.277H1127.7" stroke="#E2B649" stroke-width="1.75737" stroke-linecap="round" stroke-linejoin="round"/>
<circle cx="1127.7" cy="848.277" r="3.95408" fill="#E2B649"/>
<path d="M569.61 703.423V738.57H675.052V773.718L699.905 798.571L749.611 848.277" stroke="#E2B649" stroke-width="1.75737" stroke-linecap="round" stroke-linejoin="round"/>
<circle cx="749.61" cy="848.277" r="3.95408" fill="#E2B649"/>
<path d="M288.43 562.833V668.275V703.423V773.718V879.16L213.871 953.719" stroke="#E2B649" stroke-width="1.75737" stroke-linecap="round" stroke-linejoin="round"/>
<circle cx="213.871" cy="953.719" r="3.95408" fill="#E2B649"/>
<path d="M991.378 668.276L966.525 693.129L1016.23 742.835L1041.08 767.688V837.983L991.378 887.688" stroke="#E2B649" stroke-width="1.75737" stroke-linecap="round" stroke-linejoin="round"/>
<circle cx="991.379" cy="887.688" r="3.95408" fill="#E2B649"/>
<path d="M604.756 808.865L579.903 833.718L604.756 858.571V928.866L579.903 953.719V988.866" stroke="#E2B649" stroke-width="1.75737" stroke-linecap="round" stroke-linejoin="round"/>
<circle cx="579.903" cy="988.867" r="3.95408" fill="#E2B649"/>
<path d="M288.43 457.391L213.871 531.95H249.018V567.097V602.245V707.687" stroke="#E2B649" stroke-width="1.75737" stroke-linecap="round" stroke-linejoin="round"/>
<circle cx="249.018" cy="707.687" r="3.95408" fill="#E2B649"/>
<path d="M639.905 176.212H710.199L660.494 225.918V296.212V401.655V507.097" stroke="#E2B649" stroke-width="1.75737" stroke-linecap="round" stroke-linejoin="round"/>
<circle cx="660.494" cy="507.097" r="3.95408" fill="#E2B649"/>
<path d="M956.232 70.7694V105.917H1061.67L987.115 180.476L1036.82 230.182L1086.53 279.888" stroke="#E2B649" stroke-width="1.75737" stroke-linecap="round" stroke-linejoin="round"/>
<circle cx="1086.53" cy="279.888" r="3.95408" fill="#E2B649"/>
<path d="M42.3983 422.244V457.391V527.686H112.693V597.981V703.423" stroke="#E2B649" stroke-width="1.75737" stroke-linecap="round" stroke-linejoin="round"/>
<circle cx="112.693" cy="703.423" r="3.95408" fill="#E2B649"/>
<path d="M253.283 0.474365L278.136 25.3273L203.577 99.8862L253.283 149.592V255.034L228.43 279.887" stroke="#E2B649" stroke-width="1.75737" stroke-linecap="round" stroke-linejoin="round"/>
<circle cx="228.429" cy="279.888" r="3.95408" fill="#E2B649"/>
<path d="M499.315 597.981H393.873L443.578 647.687V753.129V858.571V964.013" stroke="#E2B649" stroke-width="1.75737" stroke-linecap="round" stroke-linejoin="round"/>
<circle cx="443.578" cy="964.014" r="3.95408" fill="#E2B649"/>
<path d="M745.347 35.6218L795.053 85.3277V120.475V190.77V261.065V296.212" stroke="#E2B649" stroke-width="1.75737" stroke-linecap="round" stroke-linejoin="round"/>
<circle cx="795.053" cy="296.212" r="3.95408" fill="#E2B649"/>
<path d="M1026.53 492.538L1101.09 567.097L1150.79 616.803V687.098V757.393V862.835" stroke="#E2B649" stroke-width="1.75737" stroke-linecap="round" stroke-linejoin="round"/>
<circle cx="1150.79" cy="862.836" r="3.95408" fill="#E2B649"/>
<path d="M991.379 105.917V141.064V246.506V281.654V316.801V351.948" stroke="#E2B649" stroke-width="1.75737" stroke-linecap="round" stroke-linejoin="round"/>
<circle cx="991.379" cy="351.948" r="3.95408" fill="#E2B649"/>
<path d="M1202.26 527.686V597.98V703.423V773.717H1272.56H1378" stroke="#E2B649" stroke-width="1.75737" stroke-linecap="round" stroke-linejoin="round"/>
<path d="M675.052 808.865H710.2L660.494 858.571L735.053 933.13V1038.57L809.612 1113.13" stroke="#E2B649" stroke-width="1.75737" stroke-linecap="round" stroke-linejoin="round"/>
<circle cx="809.611" cy="1113.13" r="3.95408" fill="#E2B649"/>
<path d="M850.789 387.096H885.937V422.244V457.391V562.833L935.643 612.539" stroke="#E2B649" stroke-width="1.75737" stroke-linecap="round" stroke-linejoin="round"/>
<circle cx="935.643" cy="612.539" r="3.95408" fill="#E2B649"/>
<path d="M393.873 211.359V281.654V316.801L443.578 366.507L518.137 441.066L592.696 515.625" stroke="#E2B649" stroke-width="1.75737" stroke-linecap="round" stroke-linejoin="round"/>
<circle cx="592.696" cy="515.625" r="3.95408" fill="#E2B649"/>
<path d="M182.988 422.244V492.538V597.981V633.128L257.547 707.687V813.129" stroke="#E2B649" stroke-width="1.75737" stroke-linecap="round" stroke-linejoin="round"/>
<circle cx="257.546" cy="813.129" r="3.95408" fill="#E2B649"/>
<path d="M464.167 914.307H393.872H288.43V984.602V1090.04V1125.19" stroke="#E2B649" stroke-width="1.75737" stroke-linecap="round" stroke-linejoin="round"/>
<circle cx="288.43" cy="1125.19" r="3.95408" fill="#E2B649"/>
<path d="M1026.53 -69.8206L1076.23 -20.1146L1150.79 54.4443V124.739L1200.5 174.445V209.592" stroke="#E2B649" stroke-width="1.75737" stroke-linecap="round" stroke-linejoin="round"/>
<circle cx="1200.5" cy="209.593" r="3.95408" fill="#E2B649"/>
<path d="M1237.41 0.474365H1342.85H1448.3L1522.85 75.0333V145.328V215.623" stroke="#E2B649" stroke-width="1.75737" stroke-linecap="round" stroke-linejoin="round"/>
<path d="M182.987 633.128V738.57V844.013V879.16V984.602L158.134 1009.46" stroke="#E2B649" stroke-width="1.75737" stroke-linecap="round" stroke-linejoin="round"/>
<circle cx="158.134" cy="1009.46" r="3.95408" fill="#E2B649"/>
<path d="M956.231 773.718V844.013L931.378 868.866V939.161L881.672 988.866V1059.16" stroke="#E2B649" stroke-width="1.75737" stroke-linecap="round" stroke-linejoin="round"/>
<circle cx="881.672" cy="1059.16" r="3.95408" fill="#E2B649"/>
<path d="M464.168 562.833L414.462 612.539V717.981V788.276L489.021 862.835H559.315" stroke="#E2B649" stroke-width="1.75737" stroke-linecap="round" stroke-linejoin="round"/>
<circle cx="559.314" cy="862.836" r="3.95408" fill="#E2B649"/>
<path d="M429.02 914.307H393.872V984.602H288.43V1090.04H323.578" stroke="#E2B649" stroke-width="1.75737" stroke-linecap="round" stroke-linejoin="round"/>
<circle cx="323.578" cy="1090.04" r="3.95408" fill="#E2B649"/>
<path d="M1096.82 -104.968V0.474161V35.6216V70.7689V176.211V211.359" stroke="#E2B649" stroke-width="1.75737" stroke-linecap="round" stroke-linejoin="round"/>
<circle cx="1096.82" cy="211.359" r="3.95408" fill="#E2B649"/>
<path d="M1237.41 527.686V597.98V703.423V738.57H1272.56H1342.85" stroke="#E2B649" stroke-width="1.75737" stroke-linecap="round" stroke-linejoin="round"/>
<path d="M1131.97 0.474365L1082.26 50.1803V155.622L1131.97 205.328H1167.12L1216.82 255.034" stroke="#E2B649" stroke-width="1.75737" stroke-linecap="round" stroke-linejoin="round"/>
<circle cx="1216.82" cy="255.034" r="3.95408" fill="#E2B649"/>
<path d="M323.578 949.455V984.602L398.137 1059.16V1164.6V1199.75V1234.9" stroke="#E2B649" stroke-width="1.75737" stroke-linecap="round" stroke-linejoin="round"/>
<circle cx="398.136" cy="1234.9" r="3.95408" fill="#E2B649"/>
<path d="M77.5447 -245.558L127.251 -195.852L52.6917 -121.293V-15.8506L127.251 58.7083V93.8557" stroke="#E2B649" stroke-width="1.75737" stroke-linecap="round" stroke-linejoin="round"/>
<circle cx="127.252" cy="93.8559" r="3.95408" fill="#E2B649"/>
<path d="M1026.53 457.391L1101.09 531.95L1150.79 581.656V651.951H1256.23L1181.67 726.51" stroke="#E2B649" stroke-width="1.75737" stroke-linecap="round" stroke-linejoin="round"/>
<circle cx="1181.67" cy="726.51" r="3.95408" fill="#E2B649"/>
<path d="M1096.82 422.244L1047.12 471.95L972.557 546.508V651.951L997.409 676.804H891.967" stroke="#E2B649" stroke-width="1.75737" stroke-linecap="round" stroke-linejoin="round"/>
<circle cx="891.967" cy="676.804" r="3.95408" fill="#E2B649"/>
<path d="M393.872 914.307L418.725 939.16L369.019 988.866L418.725 1038.57H348.43V1108.87" stroke="#E2B649" stroke-width="1.75737" stroke-linecap="round" stroke-linejoin="round"/>
<circle cx="348.43" cy="1108.87" r="3.95408" fill="#E2B649"/>
<path d="M323.577 492.538V597.981L298.724 622.834V657.981L249.018 707.687H143.576" stroke="#E2B649" stroke-width="1.75737" stroke-linecap="round" stroke-linejoin="round"/>
<circle cx="143.576" cy="707.687" r="3.95408" fill="#E2B649"/>
<path d="M921.083 527.686V562.833L995.642 637.392H890.2V672.539V742.834" stroke="#E2B649" stroke-width="1.75737" stroke-linecap="round" stroke-linejoin="round"/>
<circle cx="890.2" cy="742.834" r="3.95408" fill="#E2B649"/>
<path d="M604.756 703.423V808.865L629.609 833.718V868.866V974.308H524.167" stroke="#E2B649" stroke-width="1.75737" stroke-linecap="round" stroke-linejoin="round"/>
<circle cx="524.167" cy="974.308" r="3.95408" fill="#E2B649"/>
<path d="M429.02 668.276L379.314 717.982H344.167V788.277L294.461 837.983L319.314 862.835" stroke="#E2B649" stroke-width="1.75737" stroke-linecap="round" stroke-linejoin="round"/>
<circle cx="319.313" cy="862.836" r="3.95408" fill="#E2B649"/>
<path d="M991.378 387.096L1016.23 411.949L1041.08 436.802L966.525 511.361H931.378V546.508" stroke="#E2B649" stroke-width="1.75737" stroke-linecap="round" stroke-linejoin="round"/>
<circle cx="931.378" cy="546.508" r="3.95408" fill="#E2B649"/>
<path d="M358.725 773.718L408.431 823.424V893.719H478.726V964.014V1069.46" stroke="#E2B649" stroke-width="1.75737" stroke-linecap="round" stroke-linejoin="round"/>
<circle cx="478.726" cy="1069.46" r="3.95408" fill="#E2B649"/>
<path d="M499.315 -104.968L573.874 -30.4091V75.0331V180.475V215.623V250.77" stroke="#E2B649" stroke-width="1.75737" stroke-linecap="round" stroke-linejoin="round"/>
<circle cx="573.873" cy="250.77" r="3.95408" fill="#E2B649"/>
<path d="M710.199 387.096L635.64 461.655H600.493V531.95L625.346 556.803L675.051 606.509" stroke="#E2B649" stroke-width="1.75737" stroke-linecap="round" stroke-linejoin="round"/>
<circle cx="675.052" cy="606.509" r="3.95408" fill="#E2B649"/>
<path d="M639.905 633.128V738.57H745.347V808.865V844.013V879.16" stroke="#E2B649" stroke-width="1.75737" stroke-linecap="round" stroke-linejoin="round"/>
<circle cx="745.347" cy="879.16" r="3.95408" fill="#E2B649"/>
<path d="M147.841 668.276H77.5458V773.718V844.013L102.399 868.866L27.8399 943.425" stroke="#E2B649" stroke-width="1.75737" stroke-linecap="round" stroke-linejoin="round"/>
<circle cx="27.8399" cy="943.425" r="3.95408" fill="#E2B649"/>
<path d="M745.347 -175.263L695.641 -125.557V-90.4096L745.347 -40.7037V64.7385H639.905" stroke="#E2B649" stroke-width="1.75737" stroke-linecap="round" stroke-linejoin="round"/>
<circle cx="639.905" cy="64.7391" r="3.95408" fill="#E2B649"/>
<path d="M1237.41 176.212L1287.12 225.918V261.065V331.36H1251.97" stroke="#E2B649" stroke-width="1.75737" stroke-linecap="round" stroke-linejoin="round"/>
<path d="M-27.8974 527.686V633.128L-52.7504 657.981H52.6918L27.8388 682.834L77.5448 732.54" stroke="#E2B649" stroke-width="1.75737" stroke-linecap="round" stroke-linejoin="round"/>
<circle cx="77.5457" cy="732.54" r="3.95408" fill="#E2B649"/>
<path d="M499.315 597.981V633.128L524.168 657.981H629.61V763.423V798.571" stroke="#E2B649" stroke-width="1.75737" stroke-linecap="round" stroke-linejoin="round"/>
<circle cx="629.609" cy="798.571" r="3.95408" fill="#E2B649"/>
<path d="M429.02 -69.8206H358.725V35.6216H253.283V105.916V211.359" stroke="#E2B649" stroke-width="1.75737" stroke-linecap="round" stroke-linejoin="round"/>
<circle cx="253.283" cy="211.359" r="3.95408" fill="#E2B649"/>
<path d="M569.61 949.455H534.462H464.167V1019.75V1090.04V1160.34" stroke="#E2B649" stroke-width="1.75737" stroke-linecap="round" stroke-linejoin="round"/>
<circle cx="464.167" cy="1160.34" r="3.95408" fill="#E2B649"/>
<path d="M182.988 -34.673V0.474419V105.917L257.547 180.475V215.623V285.918" stroke="#E2B649" stroke-width="1.75737" stroke-linecap="round" stroke-linejoin="round"/>
<circle cx="257.546" cy="285.918" r="3.95408" fill="#E2B649"/>
<path d="M358.724 -104.968L333.871 -80.1151H228.429L153.87 -5.55616V29.5912L104.164 79.2972" stroke="#E2B649" stroke-width="1.75737" stroke-linecap="round" stroke-linejoin="round"/>
<circle cx="104.164" cy="79.2972" r="3.95408" fill="#E2B649"/>
<path d="M604.757 141.064V246.506V351.949L654.463 401.655V436.802H689.61" stroke="#E2B649" stroke-width="1.75737" stroke-linecap="round" stroke-linejoin="round"/>
<circle cx="689.61" cy="436.802" r="3.95408" fill="#E2B649"/>
<path d="M639.904 738.57V773.718V844.013L615.051 868.866V939.16L689.61 1013.72" stroke="#E2B649" stroke-width="1.75737" stroke-linecap="round" stroke-linejoin="round"/>
<circle cx="689.61" cy="1013.72" r="3.95408" fill="#E2B649"/>
<path d="M253.283 246.506L278.136 271.359V341.654L352.695 416.213L327.842 441.066L278.136 490.772" stroke="#E2B649" stroke-width="1.75737" stroke-linecap="round" stroke-linejoin="round"/>
<circle cx="278.135" cy="490.772" r="3.95408" fill="#E2B649"/>
<path d="M1202.26 141.064H1272.56V246.506V351.949L1322.26 401.655L1371.97 451.36" stroke="#E2B649" stroke-width="1.75737" stroke-linecap="round" stroke-linejoin="round"/>
<path d="M42.3982 879.16V914.307V949.455V1019.75H-63.044V1090.04" stroke="#E2B649" stroke-width="1.75737" stroke-linecap="round" stroke-linejoin="round"/>
<path d="M218.135 492.538H112.693V527.686H182.988L207.841 552.539L257.547 602.245" stroke="#E2B649" stroke-width="1.75737" stroke-linecap="round" stroke-linejoin="round"/>
<circle cx="257.546" cy="602.245" r="3.95408" fill="#E2B649"/>
<path d="M288.43 176.212H323.578V281.654H358.725L383.578 306.507V376.802" stroke="#E2B649" stroke-width="1.75737" stroke-linecap="round" stroke-linejoin="round"/>
<circle cx="383.577" cy="376.802" r="3.95408" fill="#E2B649"/>
<path d="M956.231 668.276V703.423V773.718L931.378 798.571V833.718H1001.67" stroke="#E2B649" stroke-width="1.75737" stroke-linecap="round" stroke-linejoin="round"/>
<circle cx="1001.67" cy="833.718" r="3.95408" fill="#E2B649"/>
<path d="M991.379 457.391V562.833H1061.67L1036.82 587.686V622.834V693.128" stroke="#E2B649" stroke-width="1.75737" stroke-linecap="round" stroke-linejoin="round"/>
<circle cx="1036.82" cy="693.128" r="3.95408" fill="#E2B649"/>
<path d="M358.725 949.455V984.602L333.872 1009.46L259.314 1084.01V1119.16L284.167 1144.01" stroke="#E2B649" stroke-width="1.75737" stroke-linecap="round" stroke-linejoin="round"/>
<circle cx="284.166" cy="1144.02" r="3.95408" fill="#E2B649"/>
<path d="M710.199 422.244L635.64 496.803V602.245L685.346 651.951V722.245L735.052 771.951" stroke="#E2B649" stroke-width="1.75737" stroke-linecap="round" stroke-linejoin="round"/>
<circle cx="735.052" cy="771.952" r="3.95408" fill="#E2B649"/>
<path d="M780.494 703.423H885.936V738.57L811.378 813.129L836.231 837.982H801.083" stroke="#E2B649" stroke-width="1.75737" stroke-linecap="round" stroke-linejoin="round"/>
<circle cx="801.083" cy="837.983" r="3.95408" fill="#E2B649"/>
<path d="M921.083 -140.115V-69.8206L846.524 4.73832H776.229L701.67 79.2972H807.112" stroke="#E2B649" stroke-width="1.75737" stroke-linecap="round" stroke-linejoin="round"/>
<circle cx="807.112" cy="79.2972" r="3.95408" fill="#E2B649"/>
<path d="M1237.41 -175.263V-140.116H1307.71V-69.8208V35.6214V70.7688" stroke="#E2B649" stroke-width="1.75737" stroke-linecap="round" stroke-linejoin="round"/>
<path d="M499.315 492.538H604.757V527.686H534.462V597.981L559.315 622.834" stroke="#E2B649" stroke-width="1.75737" stroke-linecap="round" stroke-linejoin="round"/>
<circle cx="559.314" cy="622.833" r="3.95408" fill="#E2B649"/>
<path d="M815.642 457.391V527.686H745.347L819.906 602.245V672.54V742.834" stroke="#E2B649" stroke-width="1.75737" stroke-linecap="round" stroke-linejoin="round"/>
<circle cx="819.905" cy="742.834" r="3.95408" fill="#E2B649"/>
<path d="M780.494 703.423V773.718L805.347 798.571V868.866L780.494 893.719V928.866" stroke="#E2B649" stroke-width="1.75737" stroke-linecap="round" stroke-linejoin="round"/>
<circle cx="780.494" cy="928.866" r="3.95408" fill="#E2B649"/>
<path d="M499.315 562.833H569.61V668.275V738.57V773.718V844.012" stroke="#E2B649" stroke-width="1.75737" stroke-linecap="round" stroke-linejoin="round"/>
<circle cx="569.61" cy="844.013" r="3.95408" fill="#E2B649"/>
<path d="M323.578 844.012V949.455L373.284 999.161H443.578V1104.6H478.726" stroke="#E2B649" stroke-width="1.75737" stroke-linecap="round" stroke-linejoin="round"/>
<circle cx="478.726" cy="1104.6" r="3.95408" fill="#E2B649"/>
<path d="M393.873 773.718V844.013V914.308V949.455V1054.9V1125.19" stroke="#E2B649" stroke-width="1.75737" stroke-linecap="round" stroke-linejoin="round"/>
<circle cx="393.873" cy="1125.19" r="3.95408" fill="#E2B649"/>
<path d="M429.02 808.865L404.167 833.718L379.314 858.571V964.013V999.161V1069.46" stroke="#E2B649" stroke-width="1.75737" stroke-linecap="round" stroke-linejoin="round"/>
<circle cx="379.314" cy="1069.46" r="3.95408" fill="#E2B649"/>
<path d="M1096.82 316.801L1146.53 366.507H1251.97V401.655H1181.67V471.949" stroke="#E2B649" stroke-width="1.75737" stroke-linecap="round" stroke-linejoin="round"/>
<circle cx="1181.67" cy="471.95" r="3.95408" fill="#E2B649"/>
<path d="M639.905 808.865V914.307V1019.75V1090.04H569.61L519.904 1139.75" stroke="#E2B649" stroke-width="1.75737" stroke-linecap="round" stroke-linejoin="round"/>
<circle cx="519.904" cy="1139.75" r="3.95408" fill="#E2B649"/>
<path d="M1272.56 844.012V879.16L1198 953.719V988.866H1127.7H1162.85" stroke="#E2B649" stroke-width="1.75737" stroke-linecap="round" stroke-linejoin="round"/>
<circle cx="1162.85" cy="988.867" r="3.95408" fill="#E2B649"/>
<path d="M288.43 176.212V211.359H182.988L133.282 261.065L83.5764 310.771V345.918" stroke="#E2B649" stroke-width="1.75737" stroke-linecap="round" stroke-linejoin="round"/>
<circle cx="83.5764" cy="345.918" r="3.95408" fill="#E2B649"/>
<path d="M358.725 141.064L408.431 190.77H513.873H443.579V225.918V261.065" stroke="#E2B649" stroke-width="1.75737" stroke-linecap="round" stroke-linejoin="round"/>
<circle cx="443.578" cy="261.065" r="3.95408" fill="#E2B649"/>
<path d="M604.757 70.7694V141.064L629.61 165.917H699.905V236.212L625.346 310.771" stroke="#E2B649" stroke-width="1.75737" stroke-linecap="round" stroke-linejoin="round"/>
<circle cx="625.346" cy="310.771" r="3.95408" fill="#E2B649"/>
<path d="M1096.82 527.686H1202.26V562.833L1177.41 587.686L1152.56 612.539V682.834" stroke="#E2B649" stroke-width="1.75737" stroke-linecap="round" stroke-linejoin="round"/>
<circle cx="1152.56" cy="682.834" r="3.95408" fill="#E2B649"/>
<path d="M921.083 351.949V387.096L896.23 411.949L846.524 461.655H741.082V567.097" stroke="#E2B649" stroke-width="1.75737" stroke-linecap="round" stroke-linejoin="round"/>
<circle cx="741.082" cy="567.097" r="3.95408" fill="#E2B649"/>
<path d="M42.3982 -104.968V-69.8207V35.6215V70.7688V176.211L-7.30768 225.917" stroke="#E2B649" stroke-width="1.75737" stroke-linecap="round" stroke-linejoin="round"/>
<path d="M710.199 633.128H675.052V703.423V808.865L724.758 858.571V928.866" stroke="#E2B649" stroke-width="1.75737" stroke-linecap="round" stroke-linejoin="round"/>
<circle cx="724.758" cy="928.866" r="3.95408" fill="#E2B649"/>
<path d="M956.231 844.012V914.307H885.937V949.455V1054.9V1160.34" stroke="#E2B649" stroke-width="1.75737" stroke-linecap="round" stroke-linejoin="round"/>
<circle cx="885.937" cy="1160.34" r="3.95408" fill="#E2B649"/>
<path d="M358.725 -140.115L383.578 -115.262V-80.115V25.3272V130.769L358.725 155.622" stroke="#E2B649" stroke-width="1.75737" stroke-linecap="round" stroke-linejoin="round"/>
<circle cx="358.725" cy="155.623" r="3.95408" fill="#E2B649"/>
<path d="M288.43 -175.263L213.871 -100.704V4.73814V75.0329L238.724 99.8859V205.328" stroke="#E2B649" stroke-width="1.75737" stroke-linecap="round" stroke-linejoin="round"/>
<circle cx="238.725" cy="205.329" r="3.95408" fill="#E2B649"/>
<path d="M1167.12 -69.8206L1241.67 4.73833V75.0331L1266.53 99.8861V170.181V205.328" stroke="#E2B649" stroke-width="1.75737" stroke-linecap="round" stroke-linejoin="round"/>
<circle cx="1266.53" cy="205.329" r="3.95408" fill="#E2B649"/>
<path d="M604.757 -104.968V-34.6732L555.051 15.0327H625.346H730.788V120.475" stroke="#E2B649" stroke-width="1.75737" stroke-linecap="round" stroke-linejoin="round"/>
<circle cx="730.789" cy="120.475" r="3.95408" fill="#E2B649"/>
<path d="M499.315 70.7694L474.462 95.6224H439.315V130.77H369.02L344.167 155.623" stroke="#E2B649" stroke-width="1.75737" stroke-linecap="round" stroke-linejoin="round"/>
<circle cx="344.167" cy="155.623" r="3.95408" fill="#E2B649"/>
<path d="M885.937 -175.263L935.643 -125.557L985.348 -75.8511V29.5911L910.79 104.15L960.496 153.856" stroke="#E2B649" stroke-width="1.75737" stroke-linecap="round" stroke-linejoin="round"/>
<circle cx="960.495" cy="153.856" r="3.95408" fill="#E2B649"/>
<path d="M1237.41 246.506H1131.97V351.948H1061.67L1136.23 426.507V531.95" stroke="#E2B649" stroke-width="1.75737" stroke-linecap="round" stroke-linejoin="round"/>
<circle cx="1136.23" cy="531.95" r="3.95408" fill="#E2B649"/>
<path d="M604.757 176.212V281.654V387.096V457.391V527.686L679.316 602.245" stroke="#E2B649" stroke-width="1.75737" stroke-linecap="round" stroke-linejoin="round"/>
<circle cx="679.315" cy="602.245" r="3.95408" fill="#E2B649"/>
<path d="M1202.26 0.474365H1131.97L1206.53 75.0332V110.181V215.623L1181.67 240.476" stroke="#E2B649" stroke-width="1.75737" stroke-linecap="round" stroke-linejoin="round"/>
<circle cx="1181.67" cy="240.476" r="3.95408" fill="#E2B649"/>
<path d="M745.346 316.801L819.905 391.36V496.802L770.199 546.508V581.656H664.757" stroke="#E2B649" stroke-width="1.75737" stroke-linecap="round" stroke-linejoin="round"/>
<circle cx="664.757" cy="581.656" r="3.95408" fill="#E2B649"/>
<path d="M1096.82 597.981L1071.97 622.834V728.276V798.571V904.013V974.308" stroke="#E2B649" stroke-width="1.75737" stroke-linecap="round" stroke-linejoin="round"/>
<circle cx="1071.97" cy="974.308" r="3.95408" fill="#E2B649"/>
<path d="M569.609 633.128V738.57L544.756 763.423L594.462 813.129H664.757L739.316 887.688" stroke="#E2B649" stroke-width="1.75737" stroke-linecap="round" stroke-linejoin="round"/>
<circle cx="739.316" cy="887.688" r="3.95408" fill="#E2B649"/>
<path d="M534.462 351.949L459.903 426.507V531.95L410.197 581.656H375.05V687.098" stroke="#E2B649" stroke-width="1.75737" stroke-linecap="round" stroke-linejoin="round"/>
<circle cx="375.049" cy="687.098" r="3.95408" fill="#E2B649"/>
<path d="M1237.41 457.391H1342.85H1307.71H1272.56V492.539V527.686" stroke="#E2B649" stroke-width="1.75737" stroke-linecap="round" stroke-linejoin="round"/>
<circle cx="1272.56" cy="527.686" r="3.95408" fill="#E2B649"/>
<path d="M464.166 949.455L389.607 1024.01L315.048 1098.57H350.196L424.755 1173.13L375.049 1222.84" stroke="#E2B649" stroke-width="1.75737" stroke-linecap="round" stroke-linejoin="round"/>
<circle cx="375.049" cy="1222.84" r="3.95408" fill="#E2B649"/>
<path d="M639.905 597.981H675.052V668.276H745.347H780.494" stroke="#E2B649" stroke-width="1.75737" stroke-linecap="round" stroke-linejoin="round"/>
<circle cx="780.494" cy="668.276" r="3.95408" fill="#E2B649"/>
<path d="M253.283 -140.115L203.577 -90.4094V15.0328V120.475V225.917H133.282" stroke="#E2B649" stroke-width="1.75737" stroke-linecap="round" stroke-linejoin="round"/>
<circle cx="133.282" cy="225.918" r="3.95408" fill="#E2B649"/>
<path d="M323.577 844.012H288.429V879.16V914.307V1019.75L263.577 1044.6" stroke="#E2B649" stroke-width="1.75737" stroke-linecap="round" stroke-linejoin="round"/>
<circle cx="263.577" cy="1044.6" r="3.95408" fill="#E2B649"/>
<path d="M42.3973 -210.41V-175.263V-69.8208L-32.1615 4.73808H-137.604H-243.046" stroke="#E2B649" stroke-width="1.75737" stroke-linecap="round" stroke-linejoin="round"/>
<path d="M1237.41 351.949L1311.97 426.507V496.802L1237.41 571.361V641.656L1162.85 716.215" stroke="#E2B649" stroke-width="1.75737" stroke-linecap="round" stroke-linejoin="round"/>
<circle cx="1162.85" cy="716.215" r="3.95408" fill="#E2B649"/>
<path d="M710.199 141.064L635.64 215.623H741.082V285.918L790.788 335.624L815.641 360.477" stroke="#E2B649" stroke-width="1.75737" stroke-linecap="round" stroke-linejoin="round"/>
<circle cx="815.642" cy="360.477" r="3.95408" fill="#E2B649"/>
<path d="M745.347 597.981V633.128L795.053 682.834H900.495V717.982L875.642 742.834" stroke="#E2B649" stroke-width="1.75737" stroke-linecap="round" stroke-linejoin="round"/>
<circle cx="875.641" cy="742.834" r="3.95408" fill="#E2B649"/>
<path d="M956.231 -104.968L1005.94 -55.2621V50.1801V85.3275V190.77H900.495" stroke="#E2B649" stroke-width="1.75737" stroke-linecap="round" stroke-linejoin="round"/>
<circle cx="900.495" cy="190.77" r="3.95408" fill="#E2B649"/>
<path d="M1202.26 0.474365V105.917V211.359L1127.7 285.918L1078 335.624L1102.85 360.477" stroke="#E2B649" stroke-width="1.75737" stroke-linecap="round" stroke-linejoin="round"/>
<circle cx="1102.85" cy="360.477" r="3.95408" fill="#E2B649"/>
<path d="M323.577 457.391L273.871 507.097V612.539H203.576V717.981L178.723 742.834" stroke="#E2B649" stroke-width="1.75737" stroke-linecap="round" stroke-linejoin="round"/>
<circle cx="178.723" cy="742.834" r="3.95408" fill="#E2B649"/>
<path d="M991.378 773.718H1026.53V879.16L951.967 953.719H987.114V988.866" stroke="#E2B649" stroke-width="1.75737" stroke-linecap="round" stroke-linejoin="round"/>
<circle cx="987.114" cy="988.867" r="3.95408" fill="#E2B649"/>
<path d="M147.841 -69.8206V35.6216V141.064L98.1347 190.77V296.212V401.654" stroke="#E2B649" stroke-width="1.75737" stroke-linecap="round" stroke-linejoin="round"/>
<circle cx="98.1348" cy="401.655" r="3.95408" fill="#E2B649"/>
<path d="M710.199 -175.263V-104.968H604.757V0.474036V35.6214L654.463 85.3274" stroke="#E2B649" stroke-width="1.75737" stroke-linecap="round" stroke-linejoin="round"/>
<circle cx="654.463" cy="85.328" r="3.95408" fill="#E2B649"/>
<path d="M1026.53 879.16V984.602V1019.75L951.967 1094.31V1199.75V1270.05" stroke="#E2B649" stroke-width="1.75737" stroke-linecap="round" stroke-linejoin="round"/>
<circle cx="951.967" cy="1270.05" r="3.95408" fill="#E2B649"/>
<path d="M991.379 492.538H1061.67V527.686V597.981V668.275" stroke="#E2B649" stroke-width="1.75737" stroke-linecap="round" stroke-linejoin="round"/>
<circle cx="1061.67" cy="668.276" r="3.95408" fill="#E2B649"/>
<path d="M112.692 773.718L137.545 798.571V904.013H32.1029V974.308V1009.46" stroke="#E2B649" stroke-width="1.75737" stroke-linecap="round" stroke-linejoin="round"/>
<circle cx="32.1029" cy="1009.46" r="3.95408" fill="#E2B649"/>
<path d="M569.61 422.244V492.538H464.167V527.686V597.981V668.275" stroke="#E2B649" stroke-width="1.75737" stroke-linecap="round" stroke-linejoin="round"/>
<circle cx="464.167" cy="668.276" r="3.95408" fill="#E2B649"/>
<path d="M1131.97 246.506V281.654L1206.53 356.213V391.36L1181.67 416.213L1231.38 465.919" stroke="#E2B649" stroke-width="1.75737" stroke-linecap="round" stroke-linejoin="round"/>
<circle cx="1231.38" cy="465.919" r="3.95408" fill="#E2B649"/>
<path d="M780.494 633.128H745.347V703.423H639.905V808.865V844.013" stroke="#E2B649" stroke-width="1.75737" stroke-linecap="round" stroke-linejoin="round"/>
<circle cx="639.905" cy="844.013" r="3.95408" fill="#E2B649"/>
<path d="M358.725 -69.8206V-34.6732V0.474234V70.769V105.916V211.359" stroke="#E2B649" stroke-width="1.75737" stroke-linecap="round" stroke-linejoin="round"/>
<circle cx="358.725" cy="211.359" r="3.95408" fill="#E2B649"/>
<path d="M780.494 668.276L730.788 717.982V788.277L705.935 813.13L780.494 887.688V922.836" stroke="#E2B649" stroke-width="1.75737" stroke-linecap="round" stroke-linejoin="round"/>
<circle cx="780.494" cy="922.836" r="3.95408" fill="#E2B649"/>
<path d="M429.02 738.57L478.726 788.276L503.579 813.129V918.572L478.726 943.424H584.168" stroke="#E2B649" stroke-width="1.75737" stroke-linecap="round" stroke-linejoin="round"/>
<circle cx="584.168" cy="943.425" r="3.95408" fill="#E2B649"/>
<path d="M534.462 527.686H464.168V633.128V703.423L414.462 753.129L464.168 802.835" stroke="#E2B649" stroke-width="1.75737" stroke-linecap="round" stroke-linejoin="round"/>
<circle cx="464.167" cy="802.835" r="3.95408" fill="#E2B649"/>
<path d="M42.3982 703.423H7.25081H77.5456V808.865L52.6926 833.718H17.5452" stroke="#E2B649" stroke-width="1.75737" stroke-linecap="round" stroke-linejoin="round"/>
<circle cx="17.5445" cy="833.718" r="3.95408" fill="#E2B649"/>
<path d="M710.2 35.6218H745.347V141.064H815.642L890.201 215.623V285.918" stroke="#E2B649" stroke-width="1.75737" stroke-linecap="round" stroke-linejoin="round"/>
<circle cx="890.2" cy="285.918" r="3.95408" fill="#E2B649"/>
<path d="M921.084 70.7694L970.79 120.475M970.79 120.475H865.348M970.79 120.475L945.937 145.328V180.476" stroke="#E2B649" stroke-width="1.75737" stroke-linecap="round" stroke-linejoin="round"/>
<circle cx="945.936" cy="180.476" r="3.95408" fill="#E2B649"/>
<path d="M710.2 879.16H745.347V949.455V1019.75H850.789V1090.04" stroke="#E2B649" stroke-width="1.75737" stroke-linecap="round" stroke-linejoin="round"/>
<circle cx="850.789" cy="1090.04" r="3.95408" fill="#E2B649"/>
<path d="M1272.56 703.423L1222.85 753.129L1173.15 802.835V837.982V873.13V908.277" stroke="#E2B649" stroke-width="1.75737" stroke-linecap="round" stroke-linejoin="round"/>
<circle cx="1173.15" cy="908.277" r="3.95408" fill="#E2B649"/>
<path d="M1202.26 492.538V527.686H1167.12H1237.41L1187.71 577.392H1082.26" stroke="#E2B649" stroke-width="1.75737" stroke-linecap="round" stroke-linejoin="round"/>
<circle cx="1082.26" cy="577.392" r="3.95408" fill="#E2B649"/>
<path d="M288.43 703.423H358.725V773.718L408.431 823.424L482.99 897.983H518.137" stroke="#E2B649" stroke-width="1.75737" stroke-linecap="round" stroke-linejoin="round"/>
<circle cx="518.136" cy="897.983" r="3.95408" fill="#E2B649"/>
<path d="M147.841 457.391V527.686H253.283V562.833L302.989 612.539L228.43 687.098" stroke="#E2B649" stroke-width="1.75737" stroke-linecap="round" stroke-linejoin="round"/>
<circle cx="228.429" cy="687.098" r="3.95408" fill="#E2B649"/>
<path d="M745.347 457.391H850.789H885.937V492.539V527.686V597.981" stroke="#E2B649" stroke-width="1.75737" stroke-linecap="round" stroke-linejoin="round"/>
<circle cx="885.937" cy="597.981" r="3.95408" fill="#E2B649"/>
<path d="M815.642 457.391V527.686V597.981V703.423L840.495 728.276H945.937" stroke="#E2B649" stroke-width="1.75737" stroke-linecap="round" stroke-linejoin="round"/>
<circle cx="945.936" cy="728.276" r="3.95408" fill="#E2B649"/>
<path d="M112.693 527.686V597.98V703.423L62.9866 753.129L-11.5723 827.687L13.2807 852.54" stroke="#E2B649" stroke-width="1.75737" stroke-linecap="round" stroke-linejoin="round"/>
<circle cx="13.2815" cy="852.541" r="3.95408" fill="#E2B649"/>
<path d="M288.43 -140.115V-104.968L313.283 -80.115L288.43 -55.262V15.0328L338.136 64.7387" stroke="#E2B649" stroke-width="1.75737" stroke-linecap="round" stroke-linejoin="round"/>
<circle cx="338.136" cy="64.7391" r="3.95408" fill="#E2B649"/>
<path d="M1131.97 246.506V281.654V387.096M1131.97 387.096H1237.41M1131.97 387.096V492.538" stroke="#E2B649" stroke-width="1.75737" stroke-linecap="round" stroke-linejoin="round"/>
<circle cx="1131.97" cy="492.538" r="3.95408" fill="#E2B649"/>
<path d="M956.232 0.474365V105.917H921.084L871.378 155.622V225.917H976.821" stroke="#E2B649" stroke-width="1.75737" stroke-linecap="round" stroke-linejoin="round"/>
<circle cx="976.821" cy="225.918" r="3.95408" fill="#E2B649"/>
<path d="M77.5457 808.865V844.013V914.307L152.105 988.866H187.252V1094.31" stroke="#E2B649" stroke-width="1.75737" stroke-linecap="round" stroke-linejoin="round"/>
<circle cx="187.251" cy="1094.31" r="3.95408" fill="#E2B649"/>
<path d="M182.988 -69.8206V0.474234V35.6216V70.769L133.282 120.475V190.77" stroke="#E2B649" stroke-width="1.75737" stroke-linecap="round" stroke-linejoin="round"/>
<circle cx="133.282" cy="190.77" r="3.95408" fill="#E2B649"/>
<path d="M710.2 738.57L759.905 788.276L809.611 837.982L834.464 862.835H764.17V897.983" stroke="#E2B649" stroke-width="1.75737" stroke-linecap="round" stroke-linejoin="round"/>
<circle cx="764.168" cy="897.983" r="3.95408" fill="#E2B649"/>
<path d="M218.135 316.801H288.43V422.243L338.136 471.949V577.392V612.539" stroke="#E2B649" stroke-width="1.75737" stroke-linecap="round" stroke-linejoin="round"/>
<circle cx="338.136" cy="612.539" r="3.95408" fill="#E2B649"/>
<path d="M921.084 -34.673H1026.53V70.7692L1001.67 95.6222H1107.12L1082.26 120.475" stroke="#E2B649" stroke-width="1.75737" stroke-linecap="round" stroke-linejoin="round"/>
<circle cx="1082.26" cy="120.475" r="3.95408" fill="#E2B649"/>
<path d="M569.61 668.276H464.167L489.02 693.129L513.873 717.982V753.129V788.277" stroke="#E2B649" stroke-width="1.75737" stroke-linecap="round" stroke-linejoin="round"/>
<circle cx="513.873" cy="788.277" r="3.95408" fill="#E2B649"/>
<path d="M218.136 176.212L168.43 225.918V296.212L242.988 370.771L317.547 445.33V550.772" stroke="#E2B649" stroke-width="1.75737" stroke-linecap="round" stroke-linejoin="round"/>
<circle cx="317.547" cy="550.773" r="3.95408" fill="#E2B649"/>
<path d="M1061.67 738.57H1167.12V808.865V844.013H1061.67" stroke="#E2B649" stroke-width="1.75737" stroke-linecap="round" stroke-linejoin="round"/>
<circle cx="1167.12" cy="844.013" r="3.95408" fill="#E2B649"/>
<path d="M1237.41 879.16V984.602H1202.26V1019.75V1090.04H1131.97" stroke="#E2B649" stroke-width="1.75737" stroke-linecap="round" stroke-linejoin="round"/>
<circle cx="1131.97" cy="1090.04" r="3.95408" fill="#E2B649"/>
<path d="M182.988 879.16V914.307V984.602L133.282 1034.31L158.135 1059.16V1164.6" stroke="#E2B649" stroke-width="1.75737" stroke-linecap="round" stroke-linejoin="round"/>
<circle cx="158.134" cy="1164.6" r="3.95408" fill="#E2B649"/>
<path d="M991.379 35.6218V141.064H1026.53V176.211V246.506H921.084" stroke="#E2B649" stroke-width="1.75737" stroke-linecap="round" stroke-linejoin="round"/>
<circle cx="921.084" cy="246.506" r="3.95408" fill="#E2B649"/>
<path d="M710.199 -140.115V-69.8206V35.6216L759.905 85.3275H724.758H654.463" stroke="#E2B649" stroke-width="1.75737" stroke-linecap="round" stroke-linejoin="round"/>
<circle cx="654.463" cy="85.328" r="3.95408" fill="#E2B649"/>
<path d="M1026.53 668.276H1061.67V738.571V808.865V914.308L987.114 988.867" stroke="#E2B649" stroke-width="1.75737" stroke-linecap="round" stroke-linejoin="round"/>
<circle cx="987.114" cy="988.867" r="3.95408" fill="#E2B649"/>
<path d="M358.725 808.865V844.013L309.019 893.718L383.578 968.277H489.02H453.873" stroke="#E2B649" stroke-width="1.75737" stroke-linecap="round" stroke-linejoin="round"/>
<circle cx="453.872" cy="968.278" r="3.95408" fill="#E2B649"/>
<path d="M1202.26 597.981V633.128H1167.12V703.423L1092.56 777.982V848.277" stroke="#E2B649" stroke-width="1.75737" stroke-linecap="round" stroke-linejoin="round"/>
<circle cx="1092.56" cy="848.277" r="3.95408" fill="#E2B649"/>
<path d="M393.873 70.7694V105.917V176.212L443.578 225.918L468.431 250.77V285.918" stroke="#E2B649" stroke-width="1.75737" stroke-linecap="round" stroke-linejoin="round"/>
<circle cx="468.43" cy="285.918" r="3.95408" fill="#E2B649"/>
<path d="M464.167 141.064V211.359V281.654H569.61V316.801L619.316 366.507" stroke="#E2B649" stroke-width="1.75737" stroke-linecap="round" stroke-linejoin="round"/>
<circle cx="619.316" cy="366.507" r="3.95408" fill="#E2B649"/>
<path d="M464.167 738.57H499.315V773.718V808.865V879.16V914.307" stroke="#E2B649" stroke-width="1.75737" stroke-linecap="round" stroke-linejoin="round"/>
<circle cx="499.315" cy="914.307" r="3.95408" fill="#E2B649"/>
<path d="M253.283 633.128V668.276L302.989 717.982V753.129L278.136 777.982H383.578" stroke="#E2B649" stroke-width="1.75737" stroke-linecap="round" stroke-linejoin="round"/>
<circle cx="383.577" cy="777.982" r="3.95408" fill="#E2B649"/>
</svg>
